<svg xmlns="http://www.w3.org/2000/svg" width="107" height="107" viewBox="0 0 107 107"><defs><style>.a{fill:#ededed;}.b{fill:#5387a2;}</style></defs><circle class="a" cx="53.5" cy="53.5" r="53.5"/><g transform="translate(39.948 30)"><path class="b" d="M19.065,21.233,9.24,18.359A2.683,2.683,0,0,1,9.995,13.1h6.032a5.553,5.553,0,0,1,3.111.955,1.418,1.418,0,0,0,1.774-.182l3.166-3.093a1.475,1.475,0,0,0-.164-2.229,12.864,12.864,0,0,0-7.869-2.729V1.456A1.46,1.46,0,0,0,14.589,0H11.678a1.46,1.46,0,0,0-1.456,1.456V5.822H9.995A9.968,9.968,0,0,0,.079,16.7,10.414,10.414,0,0,0,7.7,25.491l9.325,2.729a2.683,2.683,0,0,1-.755,5.258H10.24a5.553,5.553,0,0,1-3.111-.955,1.418,1.418,0,0,0-1.774.182L2.189,35.8a1.475,1.475,0,0,0,.164,2.229,12.864,12.864,0,0,0,7.869,2.729v4.367a1.46,1.46,0,0,0,1.456,1.456h2.911a1.46,1.46,0,0,0,1.456-1.456V40.738a10.276,10.276,0,0,0,9.616-6.614,9.99,9.99,0,0,0-6.6-12.891Z" transform="translate(-0.036)"/></g></svg>