<svg xmlns="http://www.w3.org/2000/svg" width="107" height="107" viewBox="0 0 107 107"><defs><style>.a{fill:#ededed}.b{fill:#5387a2}</style></defs><circle class="a" cx="53.5" cy="53.5" r="53.5"/><path class="b" d="M58.977 51.233l-9.825-2.874a2.683 2.683 0 0 1 .755-5.259h6.032a5.553 5.553 0 0 1 3.111.955 1.418 1.418 0 0 0 1.774-.182l3.166-3.093a1.475 1.475 0 0 0-.164-2.229 12.864 12.864 0 0 0-7.869-2.729v-4.366A1.46 1.46 0 0 0 54.501 30H51.59a1.46 1.46 0 0 0-1.456 1.456v4.366h-.227A9.968 9.968 0 0 0 39.991 46.7a10.414 10.414 0 0 0 7.621 8.791l9.325 2.729a2.683 2.683 0 0 1-.755 5.258h-6.03a5.553 5.553 0 0 1-3.111-.955 1.418 1.418 0 0 0-1.774.182L42.101 65.8a1.475 1.475 0 0 0 .164 2.229 12.864 12.864 0 0 0 7.869 2.729v4.367a1.46 1.46 0 0 0 1.456 1.456h2.911a1.46 1.46 0 0 0 1.456-1.456v-4.387a10.276 10.276 0 0 0 9.616-6.614 9.99 9.99 0 0 0-6.6-12.891z"/></svg>