<svg xmlns="http://www.w3.org/2000/svg" width="18.159" height="18.159" viewBox="0 0 18.159 18.159"><defs><style>.a{fill:#2d474f}</style></defs><path class="a" d="M3.689 7.945H.851A.851.851 0 0 0 0 8.8v8.512a.851.851 0 0 0 .851.851h2.838a.851.851 0 0 0 .851-.851V8.8a.851.851 0 0 0-.851-.855zm-1.419 8.8a.851.851 0 1 1 .851-.851.851.851 0 0 1-.851.847zM13.619 2.889c0 1.5-.921 2.348-1.18 3.353h3.608A2.119 2.119 0 0 1 18.159 8.3a2.568 2.568 0 0 1-.689 1.745 2.963 2.963 0 0 1-.33 2.819 2.8 2.8 0 0 1-.581 2.651 1.883 1.883 0 0 1-.218 1.583c-.724 1.04-2.518 1.055-4.035 1.055h-.1a10.182 10.182 0 0 1-4.24-1.125 5.582 5.582 0 0 0-1.867-.574.426.426 0 0 1-.418-.426V8.453a.425.425 0 0 1 .126-.3c1.4-1.388 2.009-2.858 3.161-4.012a4.3 4.3 0 0 0 .9-2.089c.158-.656.488-2.05 1.2-2.05.849-.002 2.551.282 2.551 2.887z"/></svg>