<svg xmlns="http://www.w3.org/2000/svg" width="384.857" height="139.211" viewBox="0 0 384.857 139.211"><defs><style>.a{fill:#3c7795}.b{fill:#213840}.c{fill:#e9e8e8}.d{fill:#21383e}</style></defs><path class="a" d="M167.72 113.316h-3.012V94.734h10.486v2.567h-7.473v5.809h7v2.58h-7zM203.852 94.734v12.024a7.131 7.131 0 0 1-.883 3.6 5.88 5.88 0 0 1-2.555 2.377 8.87 8.87 0 0 1-4 .833 7.476 7.476 0 0 1-5.376-1.83 6.623 6.623 0 0 1-1.92-5.033V94.734h3.051v11.757a4.7 4.7 0 0 0 1.068 3.394 4.4 4.4 0 0 0 3.279 1.093q4.3 0 4.3-4.513V94.734zM234.809 113.316h-3.724l-9.136-14.808h-.1l.064.826q.178 2.364.178 4.321v9.66h-2.758V94.734h3.686l9.113 14.731h.077q-.025-.293-.1-2.129t-.076-2.866v-9.736h2.776zM265.558 103.847q0 4.6-2.555 7.035t-7.359 2.434h-5.2V94.734h5.745a9.5 9.5 0 0 1 6.9 2.39 8.929 8.929 0 0 1 2.469 6.723zm-3.2.1q0-6.673-6.241-6.673h-2.632v13.484h2.161q6.706 0 6.707-6.809zM280.271 113.316V94.734h3.038v18.582zM314.42 113.316h-3.725l-9.139-14.808h-.1l.064.826q.178 2.364.178 4.321v9.66h-2.764V94.734h3.687l9.113 14.731h.075q-.025-.293-.1-2.129t-.076-2.866v-9.736h2.784zM337.652 103.238h6.838v9.33a19.847 19.847 0 0 1-3.222.775 22.826 22.826 0 0 1-3.337.228 8.386 8.386 0 0 1-6.508-2.5q-2.287-2.5-2.288-7.048a9.4 9.4 0 0 1 2.581-7.022 9.7 9.7 0 0 1 7.105-2.536 13.831 13.831 0 0 1 5.516 1.119l-1.067 2.529a10.734 10.734 0 0 0-4.525-1.042 6.091 6.091 0 0 0-4.7 1.868 7.231 7.231 0 0 0-1.729 5.109 7.628 7.628 0 0 0 1.557 5.18 5.645 5.645 0 0 0 4.481 1.773 14.706 14.706 0 0 0 3.152-.368v-4.792h-3.854z"/><path class="b" d="M154.698 70.023a10.219 10.219 0 0 1-1.636 5.724 10.708 10.708 0 0 1-4.717 3.887 17.484 17.484 0 0 1-7.229 1.387 29.222 29.222 0 0 1-5.807-.487 21.543 21.543 0 0 1-4.883-1.694v-8.343a27.889 27.889 0 0 0 5.57 2.145 20.756 20.756 0 0 0 5.309.77 5.156 5.156 0 0 0 3.058-.723 2.221 2.221 0 0 0 .971-1.86 2.049 2.049 0 0 0-.391-1.245 4.568 4.568 0 0 0-1.257-1.078q-.865-.546-4.61-2.228a22.09 22.09 0 0 1-5.084-2.987 9.159 9.159 0 0 1-2.512-3.319 11.01 11.01 0 0 1-.818-4.432 8.881 8.881 0 0 1 3.484-7.465q3.485-2.678 9.576-2.679a26.875 26.875 0 0 1 10.974 2.489l-2.868 7.229a20.783 20.783 0 0 0-8.39-2.228 4.37 4.37 0 0 0-2.655.64 1.937 1.937 0 0 0-.83 1.588 2.293 2.293 0 0 0 1.055 1.825 40.106 40.106 0 0 0 5.724 2.939q4.479 2.016 6.221 4.326a9.4 9.4 0 0 1 1.745 5.819z"/><g><path class="b" d="M190.056 56.917q0 5.807-3.425 8.971t-9.73 3.165h-2.631v11.495h-9.362V45.896h11.994q6.565 0 9.86 2.868t3.294 8.153zm-15.785 4.5h1.706a4.66 4.66 0 0 0 3.354-1.185 4.3 4.3 0 0 0 1.245-3.271q0-3.508-3.887-3.508h-2.417z"/></g><g><path class="b" d="M249.891 67.938v12.609h-9.361V45.896h11.352q14.126 0 14.127 10.238 0 6.021-5.878 9.315l10.1 15.1H259.61l-7.348-12.609zm0-7.04h1.754q4.906 0 4.906-4.337 0-3.578-4.811-3.579h-1.849z"/></g><g><path class="b" d="M293.516 80.547h-9.361v-27h-8.461v-7.656h26.261v7.656h-8.439z"/></g><g><path class="b" d="M384.857 80.547h-12.278l-12.653-24.413h-.213q.449 5.76.45 8.793v15.62h-8.295V45.896h12.23l12.609 24.081h.142q-.332-5.238-.332-8.414V45.896h8.343z"/></g><g><path class="b" d="M331.819 45.753h-12.49l-11.305 34.794h10.286l1.754-6.494 1.944-7.679q2.157-8.154 2.785-10.926t.841-3.982q.237 1.3.983 4.314t1.269 4.905l1.492 5.689 1.944 7.679 1.706 6.494h10.239z"/></g><g><path class="b" d="M220.531 45.753h-12.49l-11.306 34.794h10.286l1.754-6.494 1.944-7.679q2.157-8.154 2.785-10.926t.841-3.982q.236 1.3.983 4.314t1.269 4.905l1.492 5.689 1.944 7.679 1.707 6.494h10.235z"/></g><path class="c" d="M133.233 128.654H0L41.803 0h49.1zM10.961 120.69h111.268L85.141 7.963H47.589z"/><g><path class="d" d="M100.982 31.09l5.054-9.593a100.267 100.267 0 0 0-14.789-5.528l-2.214 4.524.923-4.882a79.67 79.67 0 0 0-21.3-2.87l-1.088 6.123-.564-6.09a62.839 62.839 0 0 0-9.977 1.117l1.294 10.23-4-9.632a55.715 55.715 0 0 0-16.06 6.7l5.745 8.914-7.37-7.874a58.445 58.445 0 0 0-5.606 4.227 66.836 66.836 0 0 0-6.263 6.074l8.477 6.345-9.768-4.873a54.6 54.6 0 0 0-7.535 11.526l9.182 4.293-9.956-2.619a51.224 51.224 0 0 0-3.3 10.392l5.023 1.011-5.2-.095a55.708 55.708 0 0 0-.926 9.689l4.772.333-4.773.528a65.139 65.139 0 0 0 .9 10.327l8.187-.866-7.925 2.323a84.725 84.725 0 0 0 5.7 18.144c0-3.517 7.663-11.135 13.846-10.344-4.175-24.63 5.275-45.039 29.23-49.875s39.12 8.791 39.12 8.791a35.924 35.924 0 0 1 27.912-12.308 93.072 93.072 0 0 0-18.983-12.448z"/><path class="d" d="M87.677 46.277c-1.167 3.24-3.462 9.587-12.547 19.746 7.326-10.159 9.947-17.525 10.715-21.256-4.039-1.861-23.23-9.406-40.431 6.1-11.36 10.233-10.796 25.497-10.46 37.272a25.092 25.092 0 0 1 1.628-.058c14.678 0 26.619 11.588 26.619 27.262v.067a30.614 30.614 0 0 1 6.071 3.143c18.242 12.307 18.022 19.78 24.175 20.659-3.077-8.351-6.593-20.659-5.275-41.538-3.077-1.978-11.868-5.055-13.187-14.505 8.132.439 20.951 2.608 20.951 7.9a63.975 63.975 0 0 1-1.611 12.1l4.829 8.131s4-47.337-11.477-65.023z"/><path class="d" d="M36.579 88.531c-.533 0-1.06.024-1.585.06.191 7.764.026 14.348-4.187 17.873-1.673 1.4-3.1 2.608-4.308 3.652a2.421 2.421 0 0 0 2.05 4.21c8.586-1.719 21.275-3.221 32.443.5-.258-14.544-10.785-26.295-24.413-26.295z"/></g></svg>