<svg xmlns="http://www.w3.org/2000/svg" width="58" height="58" viewBox="0 0 58 58" id="icon-insta">
  <defs>
    <style>
      #icon-insta .a,
      #icon-insta .d {
        fill: none;
      }

      #icon-insta .a {
        stroke: #fff;
        stroke-width: 2px;
      }

      #icon-insta .b {
        fill: #fff;
      }

      #icon-insta .c {
        stroke: none;
      }
    </style>
  </defs>
  <g class="a">
    <circle class="c" cx="29" cy="29" r="29" />
    <circle class="d" cx="29" cy="29" r="28" />
  </g>
  <path class="b"
    d="M12.735,8.442a6.53,6.53,0,1,0,6.53,6.53A6.52,6.52,0,0,0,12.735,8.442Zm0,10.775a4.245,4.245,0,1,1,4.245-4.245,4.253,4.253,0,0,1-4.245,4.245Zm8.32-11.042a1.523,1.523,0,1,1-1.523-1.523A1.52,1.52,0,0,1,21.055,8.175ZM25.38,9.721a7.537,7.537,0,0,0-2.057-5.336,7.587,7.587,0,0,0-5.336-2.057c-2.1-.119-8.405-.119-10.508,0A7.576,7.576,0,0,0,2.142,4.379,7.562,7.562,0,0,0,.084,9.715c-.119,2.1-.119,8.405,0,10.508A7.537,7.537,0,0,0,2.142,25.56a7.6,7.6,0,0,0,5.336,2.057c2.1.119,8.405.119,10.508,0a7.537,7.537,0,0,0,5.336-2.057,7.587,7.587,0,0,0,2.057-5.336c.119-2.1.119-8.4,0-10.5ZM22.663,22.48A4.3,4.3,0,0,1,20.242,24.9c-1.677.665-5.655.511-7.507.511S6.9,25.56,5.227,24.9A4.3,4.3,0,0,1,2.806,22.48c-.665-1.677-.511-5.655-.511-7.507s-.148-5.837.511-7.507A4.3,4.3,0,0,1,5.227,5.044c1.677-.665,5.655-.511,7.507-.511s5.837-.148,7.507.511a4.3,4.3,0,0,1,2.421,2.421c.665,1.677.511,5.655.511,7.507S23.328,20.809,22.663,22.48Z"
    transform="translate(15.979 14.027)" />
</svg>