<svg xmlns="http://www.w3.org/2000/svg" width="58" height="58" viewBox="0 0 58 58"><defs><style>.a,.d{fill:none;}.a{stroke:#fff;stroke-width:2px;}.b{fill:#fff;}.c{stroke:none;}</style></defs><g transform="translate(-1524 -1489)"><g class="a" transform="translate(1524 1489)"><circle class="c" cx="29" cy="29" r="29"/><circle class="d" cx="29" cy="29" r="28"/></g></g><path class="b" d="M24.03,8.8c.017.238.017.476.017.714A15.511,15.511,0,0,1,8.429,25.134,15.512,15.512,0,0,1,0,22.67a11.355,11.355,0,0,0,1.326.068A10.993,10.993,0,0,0,8.14,20.392a5.5,5.5,0,0,1-5.132-3.807,6.922,6.922,0,0,0,1.037.085,5.806,5.806,0,0,0,1.445-.187,5.49,5.49,0,0,1-4.4-5.387v-.068a5.528,5.528,0,0,0,2.481.7,5.5,5.5,0,0,1-1.7-7.342,15.6,15.6,0,0,0,11.318,5.744,6.2,6.2,0,0,1-.136-1.258,5.494,5.494,0,0,1,9.5-3.756,10.807,10.807,0,0,0,3.484-1.326,5.474,5.474,0,0,1-2.413,3.025,11,11,0,0,0,3.161-.85A11.8,11.8,0,0,1,24.03,8.8Z" transform="translate(15.4 15)"/></svg>