<svg xmlns="http://www.w3.org/2000/svg" width="107" height="107" viewBox="0 0 107 107"><defs><style>.a{fill:#ededed;}.b{fill:#5387a2;}</style></defs><circle class="a" cx="53.5" cy="53.5" r="53.5"/><g transform="translate(25 31)"><path class="b" d="M48.131,98.934h2.717A1.67,1.67,0,0,0,52.4,97.381V69.434a1.67,1.67,0,0,0-1.553-1.553H48.131a1.67,1.67,0,0,0-1.553,1.553V97.381A1.67,1.67,0,0,0,48.131,98.934Zm-23.289,0h2.717a1.67,1.67,0,0,0,1.553-1.553V73.316a1.67,1.67,0,0,0-1.553-1.553H24.842a1.67,1.67,0,0,0-1.553,1.553V97.381A1.67,1.67,0,0,0,24.842,98.934Zm11.645,0H39.2a1.67,1.67,0,0,0,1.553-1.553v-16.3A1.67,1.67,0,0,0,39.2,79.526H36.487a1.67,1.67,0,0,0-1.553,1.553v16.3A1.67,1.67,0,0,0,36.487,98.934Zm23.677,5.822H5.822V65.941A1.94,1.94,0,0,0,3.882,64H1.941A1.94,1.94,0,0,0,0,65.941V106.7a3.882,3.882,0,0,0,3.882,3.882H60.164a1.94,1.94,0,0,0,1.941-1.941V106.7A1.94,1.94,0,0,0,60.164,104.756ZM13.2,98.934h2.717a1.67,1.67,0,0,0,1.553-1.553V88.842a1.67,1.67,0,0,0-1.553-1.553H13.2a1.67,1.67,0,0,0-1.553,1.553v8.539A1.67,1.67,0,0,0,13.2,98.934Z" transform="translate(0 -64)"/></g></svg>