<svg xmlns="http://www.w3.org/2000/svg" width="107" height="107" viewBox="0 0 107 107"><defs><style>.a{fill:#ededed}.b{fill:#5387a2}</style></defs><circle class="a" cx="53.5" cy="53.5" r="53.5"/><path class="b" d="M73.131 65.934h2.717a1.67 1.67 0 0 0 1.552-1.553V36.434a1.67 1.67 0 0 0-1.553-1.553h-2.716a1.67 1.67 0 0 0-1.553 1.553v27.947a1.67 1.67 0 0 0 1.553 1.553zm-23.289 0h2.717a1.67 1.67 0 0 0 1.553-1.553V40.316a1.67 1.67 0 0 0-1.553-1.553h-2.717a1.67 1.67 0 0 0-1.553 1.553v24.065a1.67 1.67 0 0 0 1.553 1.553zm11.645 0H64.2a1.67 1.67 0 0 0 1.553-1.553v-16.3a1.67 1.67 0 0 0-1.553-1.555h-2.713a1.67 1.67 0 0 0-1.553 1.553v16.3a1.67 1.67 0 0 0 1.553 1.555zm23.677 5.822H30.822V32.941A1.94 1.94 0 0 0 28.882 31h-1.941A1.94 1.94 0 0 0 25 32.941V73.7a3.882 3.882 0 0 0 3.882 3.882h56.282a1.94 1.94 0 0 0 1.941-1.941V73.7a1.94 1.94 0 0 0-1.941-1.944zM38.2 65.934h2.717a1.67 1.67 0 0 0 1.553-1.553v-8.539a1.67 1.67 0 0 0-1.553-1.553H38.2a1.67 1.67 0 0 0-1.553 1.553v8.539a1.67 1.67 0 0 0 1.553 1.553z"/></svg>