<svg xmlns="http://www.w3.org/2000/svg" width="107" height="107" viewBox="0 0 107 107"><defs><style>.a{fill:#ededed}.b{fill:#5387a2}</style></defs><circle class="a" cx="53.5" cy="53.5" r="53.5"/><path class="b" d="M77.456 27H41.969a5.324 5.324 0 0 0-5.323 5.323v5.323h-5.323A5.324 5.324 0 0 0 26 42.969v35.487a5.324 5.324 0 0 0 5.323 5.323H66.81a5.324 5.324 0 0 0 5.323-5.323v-5.323h5.323a5.324 5.324 0 0 0 5.323-5.323V32.323A5.324 5.324 0 0 0 77.456 27zM66.81 78.456H31.323V55.389H66.81zM77.456 67.81h-5.323V42.969a5.324 5.324 0 0 0-5.323-5.323H41.969v-5.323h35.487z"/></svg>