<svg xmlns="http://www.w3.org/2000/svg" width="107" height="107" viewBox="0 0 107 107"><defs><style>.a{fill:#ededed;}.b{fill:#5387a2;}</style></defs><circle class="a" cx="53.5" cy="53.5" r="53.5"/><g transform="translate(26 27)"><path class="b" d="M51.456,0H15.969a5.324,5.324,0,0,0-5.323,5.323v5.323H5.323A5.324,5.324,0,0,0,0,15.969V51.456a5.324,5.324,0,0,0,5.323,5.323H40.81a5.324,5.324,0,0,0,5.323-5.323V46.133h5.323a5.324,5.324,0,0,0,5.323-5.323V5.323A5.324,5.324,0,0,0,51.456,0ZM40.81,51.456H5.323V28.389H40.81ZM51.456,40.81H46.133V15.969a5.324,5.324,0,0,0-5.323-5.323H15.969V5.323H51.456Z"/></g></svg>