<svg xmlns="http://www.w3.org/2000/svg" width="107" height="107" viewBox="0 0 107 107"><defs><style>.a{fill:#ededed}.b{fill:#5387a2}</style></defs><circle class="a" cx="53.5" cy="53.5" r="53.5"/><path class="b" d="M71.035 28.711L25.068 55.22a5.3 5.3 0 0 0 .63 9.492l12.63 5.227v9.326a5.31 5.31 0 0 0 9.569 3.16l4.84-6.531 12.365 5.105a5.315 5.315 0 0 0 7.275-4.099l6.559-42.785a5.314 5.314 0 0 0-7.9-5.4zm-27.4 50.553v-7.138l4.042 1.669zm23.492-3.171l-16.998-7.016 15.492-22.354a1.771 1.771 0 0 0-2.619-2.343L39.631 64.745 27.72 59.817l45.967-26.52z"/></svg>