<svg xmlns="http://www.w3.org/2000/svg" width="107" height="107" viewBox="0 0 107 107"><defs><style>.a{fill:#ededed;}.b{fill:#5387a2;}</style></defs><circle class="a" cx="53.5" cy="53.5" r="53.5"/><g transform="translate(22.42 27.996)"><path class="b" d="M48.658.74,2.691,27.249a5.3,5.3,0,0,0,.63,9.492l12.63,5.227v9.326a5.31,5.31,0,0,0,9.569,3.16l4.84-6.531,12.365,5.105A5.315,5.315,0,0,0,50,48.929L56.559,6.144a5.314,5.314,0,0,0-7.9-5.4Zm-27.4,50.553V44.155L25.3,45.824Zm23.492-3.171L27.752,41.106,43.244,18.752a1.771,1.771,0,0,0-2.619-2.343L17.254,36.774,5.343,31.846,51.31,5.326Z" transform="translate(-0.043 -0.025)"/></g></svg>