<svg xmlns="http://www.w3.org/2000/svg" width="107" height="107" viewBox="0 0 107 107"><defs><style>.a{fill:#ededed;}.b{fill:#5387a2;}</style></defs><circle class="a" cx="53.5" cy="53.5" r="53.5"/><g transform="translate(30 27)"><path class="b" d="M42.262,36.165,45.623,32.8a.844.844,0,0,1,1.439.6V48.676a5.044,5.044,0,0,1-5.042,5.042H5.042A5.044,5.044,0,0,1,0,48.676V11.7A5.044,5.044,0,0,1,5.042,6.656H33.774a.846.846,0,0,1,.6,1.439l-3.362,3.362a.833.833,0,0,1-.6.242H5.042V48.676H42.02V36.753A.826.826,0,0,1,42.262,36.165Zm16.451-21.2L31.126,42.552,21.63,43.6a4.34,4.34,0,0,1-4.79-4.79l1.051-9.5L45.476,1.729a6.131,6.131,0,0,1,8.688,0L58.7,6.267a6.153,6.153,0,0,1,.011,8.7ZM48.334,18.212l-6.1-6.1L22.712,31.637l-.767,6.86,6.86-.767Zm6.807-8.372L50.6,5.3a1.1,1.1,0,0,0-1.555,0L45.8,8.547l6.1,6.1L55.151,11.4A1.119,1.119,0,0,0,55.141,9.839Z" transform="translate(0 0.075)"/></g></svg>