<svg xmlns="http://www.w3.org/2000/svg" width="107" height="107" viewBox="0 0 107 107"><defs><style>.a{fill:#ededed}.b{fill:#5387a2}</style></defs><circle class="a" cx="53.5" cy="53.5" r="53.5"/><path class="b" d="M72.262 63.24l3.361-3.365a.844.844 0 0 1 1.439.6v15.276a5.044 5.044 0 0 1-5.042 5.042H35.042A5.044 5.044 0 0 1 30 75.751V38.775a5.044 5.044 0 0 1 5.042-5.044h28.732a.846.846 0 0 1 .6 1.439l-3.362 3.362a.833.833 0 0 1-.6.242h-25.37v36.977H72.02V63.828a.826.826 0 0 1 .242-.588zm16.451-21.2L61.126 69.627l-9.496 1.048a4.34 4.34 0 0 1-4.79-4.79l1.051-9.5 27.585-27.581a6.131 6.131 0 0 1 8.688 0l4.536 4.538a6.153 6.153 0 0 1 .011 8.7zm-10.379 3.247l-6.1-6.1-19.522 19.525-.767 6.86 6.86-.767zm6.807-8.372l-4.541-4.54a1.1 1.1 0 0 0-1.555 0L75.8 35.622l6.1 6.1 3.251-3.247a1.119 1.119 0 0 0-.01-1.561z"/></svg>