<svg xmlns="http://www.w3.org/2000/svg" width="161.979" height="196.843" viewBox="0 0 161.979 196.843"><defs><style>.a{fill:#fff}</style></defs><path class="a" d="M23.742 196.682h-1.918v-11.83h6.675v1.634h-4.757v3.7h4.459v1.642h-4.459zM46.744 184.852v7.653a4.539 4.539 0 0 1-.562 2.294 3.751 3.751 0 0 1-1.626 1.513 5.656 5.656 0 0 1-2.545.529 4.761 4.761 0 0 1-3.423-1.165 4.218 4.218 0 0 1-1.222-3.2v-7.622h1.94v7.485a2.99 2.99 0 0 0 .68 2.161 2.8 2.8 0 0 0 2.087.7q2.735 0 2.735-2.873v-7.469zM66.455 196.682h-2.371l-5.823-9.427h-.06l.041.526q.114 1.5.113 2.751v6.15h-1.756v-11.83h2.347l5.8 9.378h.049q-.017-.187-.065-1.356t-.049-1.825v-6.2h1.772zM86.026 190.654a5.9 5.9 0 0 1-1.627 4.479 6.533 6.533 0 0 1-4.685 1.549h-3.311v-11.83h3.658a6.05 6.05 0 0 1 4.394 1.521 5.685 5.685 0 0 1 1.571 4.281zm-2.039.065q0-4.249-3.972-4.249h-1.676v8.585h1.376q4.272 0 4.272-4.336zM95.395 196.682v-11.83h1.934v11.83zM117.135 196.682h-2.37l-5.817-9.427h-.065l.041.526q.114 1.5.113 2.751v6.15h-1.756v-11.83h2.347l5.8 9.378h.048q-.016-.187-.064-1.356t-.049-1.825v-6.2h1.772zM131.927 190.266h4.354v5.939a12.571 12.571 0 0 1-2.052.494 14.5 14.5 0 0 1-2.124.145 5.336 5.336 0 0 1-4.143-1.59 6.4 6.4 0 0 1-1.456-4.487 5.981 5.981 0 0 1 1.643-4.471 6.176 6.176 0 0 1 4.523-1.614 8.808 8.808 0 0 1 3.512.713l-.68 1.61a6.832 6.832 0 0 0-2.881-.664 3.877 3.877 0 0 0-2.994 1.19 4.6 4.6 0 0 0-1.1 3.253 4.855 4.855 0 0 0 .991 3.3 3.591 3.591 0 0 0 2.852 1.13 9.393 9.393 0 0 0 2.007-.235v-3.051h-2.452zM104.08 48.249c-1.217 3.379-3.61 10-13.081 20.588 7.638-10.592 10.371-18.272 11.171-22.162-4.212-1.94-24.22-9.807-42.153 6.36-11.84 10.673-11.256 26.584-10.915 38.859a26.53 26.53 0 0 1 1.7-.06c15.3 0 27.754 12.082 27.754 28.423v.069a31.918 31.918 0 0 1 6.329 3.276c19.019 12.832 18.789 20.623 25.206 21.539-3.208-8.707-6.874-21.539-5.5-43.307-3.208-2.062-12.373-5.27-13.748-15.123 8.478.458 21.844 2.719 21.844 8.233a66.689 66.689 0 0 1-1.68 12.618l5.041 8.478s4.165-49.351-11.968-67.791z"/><path class="a" d="M105.244 125.832H88.068a81.428 81.428 0 0 1 9.832 8.3h8.857a90.024 90.024 0 0 1-1.513-8.3zM50.805 92.303c-.556 0-1.106.025-1.653.062.2 8.095.027 14.959-4.366 18.635a421.257 421.257 0 0 0-4.491 3.807 2.525 2.525 0 0 0 2.137 4.39c8.952-1.792 22.181-3.358 33.825.524-.267-15.166-11.243-27.418-25.452-27.418z"/><g><path class="a" d="M15.451 169.119a6.505 6.505 0 0 1-1.041 3.645 6.82 6.82 0 0 1-3 2.476 11.144 11.144 0 0 1-4.6.883 18.619 18.619 0 0 1-3.7-.31 13.706 13.706 0 0 1-3.11-1.08v-5.311a17.78 17.78 0 0 0 3.546 1.366 13.219 13.219 0 0 0 3.38.49 3.282 3.282 0 0 0 1.947-.46 1.415 1.415 0 0 0 .619-1.185 1.306 1.306 0 0 0-.249-.793 2.911 2.911 0 0 0-.8-.686q-.55-.348-2.935-1.419a14.074 14.074 0 0 1-3.236-1.9 5.836 5.836 0 0 1-1.6-2.113 7.007 7.007 0 0 1-.52-2.822 5.655 5.655 0 0 1 2.218-4.753 9.78 9.78 0 0 1 6.1-1.706 17.107 17.107 0 0 1 6.987 1.584l-1.826 4.6a13.236 13.236 0 0 0-5.342-1.419 2.783 2.783 0 0 0-1.69.408 1.233 1.233 0 0 0-.528 1.011 1.459 1.459 0 0 0 .671 1.162 25.592 25.592 0 0 0 3.639 1.877 10.085 10.085 0 0 1 3.961 2.754 5.983 5.983 0 0 1 1.109 3.701z"/></g><g><path class="a" d="M37.961 160.775a7.387 7.387 0 0 1-2.18 5.711 8.8 8.8 0 0 1-6.195 2.015h-1.674v7.318h-5.961v-22.06h7.635q4.18 0 6.278 1.826a6.513 6.513 0 0 1 2.097 5.19zm-10.049 2.868h1.086a2.966 2.966 0 0 0 2.135-.755 2.738 2.738 0 0 0 .793-2.082q0-2.233-2.475-2.233h-1.539z"/></g><g><path class="a" d="M76.055 167.792v8.027h-5.96v-22.06h7.228q8.993 0 8.994 6.519a6.515 6.515 0 0 1-3.742 5.93l6.428 9.612h-6.76l-4.678-8.027zm0-4.482h1.117q3.123 0 3.123-2.761 0-2.278-3.063-2.278h-1.177z"/></g><g><path class="a" d="M103.831 175.82H97.87v-17.187h-5.387v-4.874h16.718v4.874h-5.372z"/></g><g><path class="a" d="M161.98 175.82h-7.816l-8.058-15.542h-.135q.286 3.667.286 5.6v9.944h-5.281v-22.063h7.786l8.027 15.331h.091q-.211-3.334-.211-5.357v-9.974h5.311z"/></g><g><path class="a" d="M128.212 153.668h-7.952l-7.2 22.151h6.548l1.117-4.135 1.237-4.889q1.374-5.191 1.773-6.956t.536-2.535q.151.829.626 2.746t.807 3.123l.95 3.622 1.238 4.889 1.087 4.135h6.518z"/></g><g><path class="a" d="M57.363 153.668h-7.952l-7.2 22.151h6.549l1.116-4.135 1.238-4.889q1.373-5.191 1.773-6.956t.535-2.535q.151.829.626 2.746t.808 3.123l.95 3.622 1.237 4.889 1.087 4.135h6.518z"/></g><g><path class="a" d="M117.953 32.414l5.269-10a104.491 104.491 0 0 0-15.418-5.763l-2.309 4.717.963-5.09a83.055 83.055 0 0 0-22.2-2.993l-1.135 6.384-.588-6.349a65.5 65.5 0 0 0-10.411 1.166l1.35 10.666-4.172-10.043a58.091 58.091 0 0 0-16.744 6.989l5.991 9.294-7.683-8.206a60.928 60.928 0 0 0-5.842 4.4 69.678 69.678 0 0 0-6.53 6.333l8.839 6.615-10.188-5.076a56.941 56.941 0 0 0-7.856 12.017l9.573 4.471-10.38-2.73a53.424 53.424 0 0 0-3.438 10.835l5.236 1.05-5.42-.1a58.071 58.071 0 0 0-.965 10.1l4.976.347-4.976.55a67.861 67.861 0 0 0 .941 10.767l8.53-.9-8.263 2.421a88.34 88.34 0 0 0 5.94 18.917c0-3.667 7.99-11.61 14.436-10.785-4.354-25.679 5.5-46.958 30.475-52s40.787 9.168 40.787 9.168a37.452 37.452 0 0 1 29.1-12.832 97 97 0 0 0-19.792-12.978z"/><path class="a" d="M103.841 15.613l1.741 5.291.876-4.627q-1.301-.35-2.617-.664zM56.044 27.508l2.856-8.791a58.035 58.035 0 0 0-6.344 3.382zM50.865 23.184q-1.406.933-2.785 1.966l-4.168 12.831 3.418 2.558-3.658-1.823-14.153 43.558 3.845-.406-4.1 1.2-2.584 7.952a92.958 92.958 0 0 0 4.362 12.189 7.079 7.079 0 0 1 1.615-3.72l23.095-71.08z"/><path class="a" d="M24.097 125.831l5.971-18.377-1.4-3.211q-1.95-4.469-3.389-8.913l-12.608 38.8h81.484a88.412 88.412 0 0 0-10.6-8.3zM122.115 44.59l-4.046-12.3-.116.124.1-.183-4.533-13.764q-2.813-.986-5.717-1.817l-2.165 4.424 8.8 26.757a26.177 26.177 0 0 1 2.3 1.757 42.482 42.482 0 0 1 5.377-4.998zM118.659 51.331l-2.231 2.538 23.677 71.963h-32.229c.424 3.042.96 5.8 1.56 8.3h42.142l-28.6-86.913a40.157 40.157 0 0 0-4.319 4.112zM50.321 20.433l.937-.623.027.029a60.552 60.552 0 0 1 8.682-4.4L62.285 8.3h39.151l1.462 4.443c1.17.259 2.343.532 3.52.839l.01-.021 1.371.39 1.652.445-.006.029c1.021.3 2.043.625 3.063.96L107.445 0H56.252l-6.816 20.978z"/></g></svg>