<svg xmlns="http://www.w3.org/2000/svg" width="161.979" height="196.843" viewBox="0 0 161.979 196.843"><defs><style>.a{fill:#fff;}</style></defs><g transform="translate(21.824 184.682)"><path class="a" d="M35.595,297.077H33.677v-11.83h6.675v1.634H35.595v3.7h4.459v1.642H35.595Z" transform="translate(-33.677 -285.077)"/><path class="a" d="M67.038,285.247V292.9a4.539,4.539,0,0,1-.562,2.294,3.751,3.751,0,0,1-1.626,1.513,5.656,5.656,0,0,1-2.545.529,4.761,4.761,0,0,1-3.423-1.165,4.218,4.218,0,0,1-1.222-3.2v-7.622H59.6v7.485a2.99,2.99,0,0,0,.68,2.161,2.8,2.8,0,0,0,2.087.7q2.735,0,2.735-2.873v-7.469Z" transform="translate(-42.118 -285.077)"/><path class="a" d="M97.194,297.077H94.823L89,287.65H88.94l.041.526q.114,1.5.113,2.751v6.15H87.338v-11.83h2.347l5.8,9.378h.049q-.017-.187-.065-1.356t-.049-1.825v-6.2h1.772Z" transform="translate(-52.563 -285.077)"/><path class="a" d="M127.523,291.049a5.9,5.9,0,0,1-1.627,4.479,6.533,6.533,0,0,1-4.685,1.549H117.9v-11.83h3.658a6.05,6.05,0,0,1,4.394,1.521A5.685,5.685,0,0,1,127.523,291.049Zm-2.039.065q0-4.249-3.972-4.249h-1.676v8.585h1.376Q125.484,295.45,125.484,291.114Z" transform="translate(-63.321 -285.077)"/><path class="a" d="M147.205,297.077v-11.83h1.934v11.83Z" transform="translate(-73.634 -285.077)"/><path class="a" d="M175.4,297.077H173.03l-5.817-9.427h-.065l.041.526q.114,1.5.113,2.751v6.15h-1.756v-11.83h2.347l5.8,9.378h.048q-.016-.187-.064-1.356t-.049-1.825v-6.2H175.4Z" transform="translate(-80.089 -285.077)"/><path class="a" d="M200.633,290.568h4.354v5.939a12.571,12.571,0,0,1-2.052.494,14.5,14.5,0,0,1-2.124.145,5.336,5.336,0,0,1-4.143-1.59,6.4,6.4,0,0,1-1.456-4.487,5.981,5.981,0,0,1,1.643-4.471,6.176,6.176,0,0,1,4.523-1.614,8.808,8.808,0,0,1,3.512.713l-.68,1.61a6.832,6.832,0,0,0-2.881-.664,3.877,3.877,0,0,0-2.994,1.19,4.6,4.6,0,0,0-1.1,3.253,4.855,4.855,0,0,0,.991,3.3,3.591,3.591,0,0,0,2.852,1.13,9.393,9.393,0,0,0,2.007-.235v-3.051h-2.452Z" transform="translate(-90.53 -284.984)"/></g><g transform="translate(39.409 43.052)"><g transform="translate(9.562)"><path class="a" d="M130.678,71.63c-1.217,3.379-3.61,10-13.081,20.588,7.638-10.592,10.371-18.272,11.171-22.162-4.212-1.94-24.22-9.807-42.153,6.36C74.775,87.089,75.359,103,75.7,115.275c.562-.036,1.127-.06,1.7-.06,15.3,0,27.754,12.082,27.754,28.423,0,.023,0,.046,0,.069a31.918,31.918,0,0,1,6.329,3.276c19.019,12.832,18.789,20.623,25.206,21.539-3.208-8.707-6.874-21.539-5.5-43.307-3.208-2.062-12.373-5.27-13.748-15.123,8.478.458,21.844,2.719,21.844,8.233a66.689,66.689,0,0,1-1.68,12.618l5.041,8.478S146.811,90.07,130.678,71.63Z" transform="translate(-75.569 -66.433)"/><path class="a" d="M153.076,194.172H135.9a81.428,81.428,0,0,1,9.832,8.3h8.857C154.008,199.966,153.487,197.213,153.076,194.172Z" transform="translate(-96.803 -111.392)"/></g><g transform="translate(0 49.251)"><path class="a" d="M72.209,142.433c-.556,0-1.106.025-1.653.062.2,8.095.027,14.959-4.366,18.635-1.744,1.459-3.228,2.72-4.491,3.807a2.525,2.525,0,0,0,2.137,4.39c8.952-1.792,22.181-3.358,33.825.524C97.394,154.685,86.418,142.433,72.209,142.433Z" transform="translate(-60.813 -142.433)"/></g></g><g transform="translate(0 153.442)"><path class="a" d="M15.451,252.455A6.505,6.505,0,0,1,14.41,256.1a6.82,6.82,0,0,1-3,2.476,11.144,11.144,0,0,1-4.6.883,18.619,18.619,0,0,1-3.7-.31A13.706,13.706,0,0,1,0,258.069v-5.311a17.78,17.78,0,0,0,3.546,1.366,13.219,13.219,0,0,0,3.38.49,3.282,3.282,0,0,0,1.947-.46,1.415,1.415,0,0,0,.619-1.185,1.306,1.306,0,0,0-.249-.793,2.911,2.911,0,0,0-.8-.686q-.55-.348-2.935-1.419a14.074,14.074,0,0,1-3.236-1.9,5.836,5.836,0,0,1-1.6-2.113,7.007,7.007,0,0,1-.52-2.822,5.655,5.655,0,0,1,2.218-4.753,9.78,9.78,0,0,1,6.1-1.706,17.107,17.107,0,0,1,6.987,1.584l-1.826,4.6a13.236,13.236,0,0,0-5.342-1.419,2.783,2.783,0,0,0-1.69.408,1.233,1.233,0,0,0-.528,1.011,1.459,1.459,0,0,0,.671,1.162A25.592,25.592,0,0,0,10.381,246a10.085,10.085,0,0,1,3.961,2.754A5.983,5.983,0,0,1,15.451,252.455Z" transform="translate(0 -236.778)"/></g><g transform="translate(21.951 153.759)"><path class="a" d="M49.883,244.283a7.387,7.387,0,0,1-2.18,5.711,8.8,8.8,0,0,1-6.195,2.015H39.834v7.318H33.873V237.267h7.635q4.18,0,6.278,1.826A6.513,6.513,0,0,1,49.883,244.283Zm-10.049,2.868H40.92a2.966,2.966,0,0,0,2.135-.755,2.738,2.738,0,0,0,.793-2.082q0-2.233-2.475-2.233H39.834Z" transform="translate(-33.873 -237.267)"/></g><g transform="translate(70.095 153.759)"><path class="a" d="M114.124,251.3v8.027h-5.96V237.267h7.228q8.993,0,8.994,6.519a6.515,6.515,0,0,1-3.742,5.93l6.428,9.612h-6.76l-4.678-8.027Zm0-4.482h1.117q3.123,0,3.123-2.761,0-2.278-3.063-2.278h-1.177Z" transform="translate(-108.164 -237.267)"/></g><g transform="translate(92.484 153.759)"><path class="a" d="M154.061,259.328H148.1V242.141h-5.387v-4.874h16.718v4.874h-5.372Z" transform="translate(-142.714 -237.267)"/></g><g transform="translate(140.976 153.759)"><path class="a" d="M238.544,259.328h-7.816l-8.058-15.542h-.135q.286,3.667.286,5.6v9.944H217.54V237.267h7.786l8.027,15.331h.091q-.211-3.334-.211-5.357v-9.974h5.311Z" transform="translate(-217.54 -237.267)"/></g><g transform="translate(113.063 153.668)"><path class="a" d="M189.618,237.127h-7.952l-7.2,22.151h6.548l1.117-4.135,1.237-4.889q1.374-5.191,1.773-6.956t.536-2.535q.151.829.626,2.746t.807,3.123l.95,3.622,1.238,4.889,1.087,4.135h6.518Z" transform="translate(-174.469 -237.127)"/></g><g transform="translate(42.214 153.668)"><path class="a" d="M80.289,237.127H72.337l-7.2,22.151h6.549l1.116-4.135,1.238-4.889q1.373-5.191,1.773-6.956t.535-2.535q.151.829.626,2.746t.808,3.123l.95,3.622,1.237,4.889,1.087,4.135h6.518Z" transform="translate(-65.14 -237.127)"/></g><g transform="translate(12.669)"><path class="a" d="M130.929,39.628l5.269-10a104.491,104.491,0,0,0-15.418-5.763l-2.309,4.717.963-5.09a83.055,83.055,0,0,0-22.2-2.993l-1.135,6.384-.588-6.349A65.5,65.5,0,0,0,85.1,21.7L86.45,32.366,82.278,22.323a58.091,58.091,0,0,0-16.744,6.989l5.991,9.294L63.842,30.4A60.928,60.928,0,0,0,58,34.8a69.678,69.678,0,0,0-6.53,6.333l8.839,6.615L50.121,42.672a56.941,56.941,0,0,0-7.856,12.017l9.573,4.471-10.38-2.73A53.424,53.424,0,0,0,38.02,67.265l5.236,1.05-5.42-.1a58.071,58.071,0,0,0-.965,10.1l4.976.347-4.976.55a67.861,67.861,0,0,0,.941,10.767l8.53-.9L38.079,91.5a88.34,88.34,0,0,0,5.94,18.917c0-3.667,7.99-11.61,14.436-10.785-4.354-25.679,5.5-46.958,30.475-52S129.717,56.8,129.717,56.8a37.452,37.452,0,0,1,29.1-12.832,97,97,0,0,0-19.792-12.978Z" transform="translate(-25.645 -7.214)"/><path class="a" d="M160.238,24.093l1.741,5.291.876-4.627Q161.554,24.407,160.238,24.093Z" transform="translate(-69.066 -8.48)"/><path class="a" d="M84.588,37.673l2.856-8.791A58.035,58.035,0,0,0,81.1,32.264Z" transform="translate(-41.213 -10.165)"/><path class="a" d="M65.353,35.775q-1.406.933-2.785,1.966L58.4,50.572l3.418,2.558L58.16,51.307,44.007,94.865l3.845-.406-4.1,1.2-2.584,7.952A92.958,92.958,0,0,0,45.53,115.8a7.079,7.079,0,0,1,1.615-3.72L70.24,41Z" transform="translate(-27.157 -12.591)"/><path class="a" d="M30.977,177.606l5.971-18.377-1.4-3.211q-1.95-4.469-3.389-8.913l-12.608,38.8h81.484a88.412,88.412,0,0,0-10.6-8.3Z" transform="translate(-19.549 -51.775)"/><path class="a" d="M179.488,53.633l-4.046-12.3-.116.124.1-.183L170.893,27.51q-2.813-.986-5.717-1.817l-2.165,4.424,8.8,26.757a26.177,26.177,0,0,1,2.3,1.757A42.482,42.482,0,0,1,179.488,53.633Z" transform="translate(-70.042 -9.043)"/><path class="a" d="M177.247,76.977l-2.231,2.538,23.677,71.963H166.464c.424,3.042.96,5.8,1.56,8.3h42.142l-28.6-86.913A40.157,40.157,0,0,0,177.247,76.977Z" transform="translate(-71.257 -25.646)"/><path class="a" d="M77.169,20.433l.937-.623.027.029a60.552,60.552,0,0,1,8.682-4.4L89.133,8.3h39.151l1.462,4.443c1.17.259,2.343.532,3.52.839l.01-.021,1.371.39,1.652.445-.006.029c1.021.3,2.043.625,3.063.96L134.293,0H83.1L76.284,20.978Z" transform="translate(-39.517)"/></g></svg>