<svg xmlns="http://www.w3.org/2000/svg" width="266.351" height="34.551" viewBox="0 0 266.351 34.551"><defs><style>.a{fill:none}.b{clip-path:url(#a)}.c{fill:#5387a2}</style><clipPath id="a"><path class="a" d="M0 0h266.351v34.551H0z"/></clipPath></defs><g class="b"><path class="c" d="M18.175 27.775l11.228 6.776-2.967-12.782 9.915-8.6-13.071-1.118L18.175 0 13.07 12.051.003 13.173l9.915 8.6-2.975 12.778zM74.175 27.775l11.228 6.776-2.967-12.782 9.915-8.6-13.071-1.118L74.175 0 69.07 12.051l-13.067 1.122 9.915 8.6-2.975 12.778zM130.175 27.775l11.228 6.776-2.967-12.782 9.915-8.6-13.071-1.118L130.175 0l-5.105 12.051-13.067 1.122 9.915 8.6-2.975 12.778zM186.175 27.775l11.228 6.776-2.967-12.782 9.915-8.6-13.071-1.118L186.175 0l-5.105 12.051-13.067 1.122 9.915 8.6-2.975 12.778zM242.175 27.775l11.228 6.776-2.967-12.782 9.915-8.6-13.071-1.118L242.175 0l-5.105 12.051-13.067 1.122 9.915 8.6-2.975 12.778z"/></g></svg>