<svg xmlns="http://www.w3.org/2000/svg" width="1149.872" height="1243.332" viewBox="0 0 1149.872 1243.332"><defs><style>.a{fill:#5387a2;opacity:.085}</style></defs><path class="a" d="M756.11 329.705c152.121 173.883 112.855 639.234 112.855 639.234l-47.534-79.944s15.838-66.977 15.838-118.978-126.03-73.314-205.967-77.64c12.96 92.911 99.388 123.158 129.635 142.6-5.719 90.552-2.182 164.679 6.147 226.328q1.393 10.312 2.97 20.146c.061.409.128.825.189 1.234q1.558 9.716 3.269 18.991c.079.464.165.923.25 1.381q3.547 19.111 7.608 36.486a853.975 853.975 0 0 0 31.42 103.787c-41.515-5.927-53.534-42.389-114.939-103.787-22.768-22.762-52.355-48.957-92.715-78.288a1052.91 1052.91 0 0 0-30.015-21.02 300.787 300.787 0 0 0-59.681-30.895c0-.22.018-.434.018-.654 0-154.089-117.4-268.014-261.7-268.014-5.377 0-10.706.232-16.01.574-3.257-115.758-8.769-265.777 102.877-366.423 169.096-152.435 357.754-78.261 397.477-59.966-7.552 36.687-33.314 109.1-105.339 208.974 89.305-99.871 111.871-162.265 123.347-194.126zm-502.346 415.4c-5.237 0-10.425.238-15.582.587 1.882 76.32.257 141.055-41.16 175.714-16.45 13.761-30.443 25.64-42.352 35.9-18.527 15.961-3.825 46.19 20.152 41.393 84.411-16.9 209.151-31.665 318.939 4.943-2.53-143.012-106.018-258.537-239.997-258.537zm709.48-646.139l-76.253 81.349-.086.092 49.685-94.3a995.778 995.778 0 0 0-115.538-45.258 653.446 653.446 0 0 0-5.029-1.6c-8.225-2.591-16.486-5.114-24.821-7.485l-21.766 44.479 9.074-48q-12.264-3.3-24.668-6.257l.006.012C693.813 7.669 631.579-.512 569.14.024l-10.7 60.2L552.898.353a617.8 617.8 0 0 0-98.086 10.987l12.692 100.585-39.334-94.687a552.113 552.113 0 0 0-98.08 34.011h-.006c-2.78 1.271-5.542 2.628-8.31 3.947-3.147 1.5-6.294 3.006-9.422 4.571q-3.96 1.989-7.889 4.045-5.371 2.8-10.706 5.738c-2.12 1.167-4.247 2.316-6.361 3.514-5.732 3.251-11.439 6.581-17.109 10.076l32.868 51 23.611 36.639-72.446-77.414q-6.636 4.409-13.211 9.056-6.5 4.583-12.942 9.4l-.1.079q-14.592 10.9-28.86 23.018a657.646 657.646 0 0 0-61.563 59.712l51.115 38.264 32.22 24.121-96.025-47.907a536.671 536.671 0 0 0-74.075 113.308l90.265 42.163-97.881-25.745A504.084 504.084 0 0 0 10.84 440.996l49.373 9.905-51.108-.929a547.685 547.685 0 0 0-9.1 95.257l46.917 3.275L0 553.688a639.852 639.852 0 0 0 8.873 101.52l80.433-8.506-38.7 11.347-39.21 11.499c4.2 22.4 9.306 43.629 14.849 63.488l.012.043a822.133 822.133 0 0 0 10.247 33.889l.128.391q5.234 15.985 10.528 30.284c.1.257.189.5.281.758q2.484 6.709 4.925 13.009c.1.263.2.531.306.788q2.511 6.471 4.956 12.484c.159.4.312.764.471 1.161q2.062 5.05 4.039 9.752c.373.88.733 1.747 1.1 2.609a965.664 965.664 0 0 0 4.07 9.477l.1.238.006-.055a26.972 26.972 0 0 1 .251-3.5c.049-.367.141-.752.2-1.13.147-.88.306-1.766.525-2.676.11-.434.251-.886.373-1.326.251-.9.507-1.8.825-2.731.153-.44.33-.892.495-1.338.361-.972.739-1.949 1.167-2.951.177-.415.373-.831.562-1.253q.724-1.6 1.558-3.251c.189-.367.379-.733.574-1.1q.944-1.8 2.016-3.617c.165-.287.33-.574.5-.862a107.777 107.777 0 0 1 2.585-4.106c.1-.159.2-.318.306-.477a134.843 134.843 0 0 1 3.281-4.711c25.1-34.408 76.815-72.251 120.891-66.611-41.05-242.131 51.856-442.776 287.356-490.309 182.888-36.914 313.61 35.6 362.91 69.855l.006.006a345.668 345.668 0 0 1 9.325 6.709l.061.049c8.072 6.031 12.288 9.8 12.288 9.8 3.831-4.216 7.687-8.249 11.549-12.178 1.179-1.2 2.365-2.34 3.544-3.514 2.744-2.725 5.493-5.4 8.249-7.98q1.952-1.833 3.9-3.611 4.216-3.85 8.432-7.479c1.112-.959 2.224-1.943 3.343-2.884 3.886-3.275 7.773-6.453 11.665-9.477 92.422-71.8 184.782-73.87 223.718-73.87-48.655-42.168-112.828-85.419-186.625-122.375z"/></svg>