<svg xmlns="http://www.w3.org/2000/svg" width="1149.872" height="1243.332" viewBox="0 0 1149.872 1243.332"><defs><style>.a{fill:#5387a2;opacity:0.085;}</style></defs><path class="a" d="M791.231,383.417C943.352,557.3,904.086,1022.651,904.086,1022.651l-47.534-79.944s15.838-66.977,15.838-118.978-126.03-73.314-205.967-77.64c12.96,92.911,99.388,123.158,129.635,142.6-5.719,90.552-2.182,164.679,6.147,226.328q1.393,10.312,2.97,20.146c.061.409.128.825.189,1.234q1.558,9.716,3.269,18.991c.079.464.165.923.25,1.381q3.547,19.111,7.608,36.486a853.975,853.975,0,0,0,31.42,103.787c-41.515-5.927-53.534-42.389-114.939-103.787-22.768-22.762-52.355-48.957-92.715-78.288-9.416-6.838-19.37-13.84-30.015-21.02a300.787,300.787,0,0,0-59.681-30.895c0-.22.018-.434.018-.654,0-154.089-117.4-268.014-261.7-268.014-5.377,0-10.706.232-16.01.574-3.257-115.758-8.769-265.777,102.877-366.423C544.842,276.1,733.5,350.274,773.223,368.569c-7.552,36.687-33.314,109.1-105.339,208.974C757.189,477.672,779.755,415.278,791.231,383.417Zm-502.346,415.4c-5.237,0-10.425.238-15.582.587,1.882,76.32.257,141.055-41.16,175.714-16.45,13.761-30.443,25.64-42.352,35.9-18.527,15.961-3.825,46.19,20.152,41.393,84.411-16.9,209.151-31.665,318.939,4.943C526.352,914.342,422.864,798.817,288.885,798.817Zm709.48-646.139-76.253,81.349-.086.092,49.685-94.3A995.778,995.778,0,0,0,856.173,94.561c-1.674-.538-3.349-1.075-5.029-1.6-8.225-2.591-16.486-5.114-24.821-7.485l-21.766,44.479,9.074-48q-12.264-3.3-24.668-6.257l.006.012C728.934,61.381,666.7,53.2,604.261,53.736l-10.7,60.2-5.542-59.871a617.8,617.8,0,0,0-98.086,10.987l12.692,100.585L463.291,70.95a552.113,552.113,0,0,0-98.08,34.011h-.006c-2.78,1.271-5.542,2.628-8.31,3.947-3.147,1.5-6.294,3.006-9.422,4.571q-3.96,1.989-7.889,4.045-5.371,2.8-10.706,5.738c-2.12,1.167-4.247,2.316-6.361,3.514-5.732,3.251-11.439,6.581-17.109,10.076l32.868,51h0l23.611,36.639-72.446-77.414q-6.636,4.409-13.211,9.056-6.5,4.583-12.942,9.4l-.1.079h0q-14.592,10.9-28.86,23.018a657.646,657.646,0,0,0-61.563,59.712l51.115,38.264L256.1,310.727,160.075,262.82A536.671,536.671,0,0,0,86,376.128l90.265,42.163L78.384,392.546A504.084,504.084,0,0,0,45.961,494.708l49.373,9.905-51.108-.929a547.685,547.685,0,0,0-9.1,95.257l46.917,3.275L35.121,607.4a639.852,639.852,0,0,0,8.873,101.52l80.433-8.506-38.7,11.347L46.517,723.26c4.2,22.4,9.306,43.629,14.849,63.488h0l.012.043c3.294,11.818,6.74,23.122,10.247,33.889l.128.391q5.234,15.985,10.528,30.284c.1.257.189.5.281.758q2.484,6.709,4.925,13.009c.1.263.2.531.306.788q2.511,6.471,4.956,12.484c.159.4.312.764.471,1.161q2.062,5.05,4.039,9.752c.373.88.733,1.747,1.1,2.609,1.387,3.275,2.756,6.465,4.07,9.477l.1.238h0l.006-.055a26.972,26.972,0,0,1,.251-3.5c.049-.367.141-.752.2-1.13.147-.88.306-1.766.525-2.676.11-.434.251-.886.373-1.326.251-.9.507-1.8.825-2.731.153-.44.33-.892.495-1.338.361-.972.739-1.949,1.167-2.951.177-.415.373-.831.562-1.253q.724-1.6,1.558-3.251c.189-.367.379-.733.574-1.1q.944-1.8,2.016-3.617c.165-.287.33-.574.5-.862.813-1.356,1.674-2.731,2.585-4.106.1-.159.2-.318.306-.477,1.039-1.558,2.126-3.129,3.281-4.711h0c25.1-34.408,76.815-72.251,120.891-66.611C197.594,557.805,290.5,357.16,526,309.627c182.888-36.914,313.61,35.6,362.91,69.855l.006.006c3.526,2.45,6.636,4.705,9.325,6.709l.061.049c8.072,6.031,12.288,9.8,12.288,9.8,3.831-4.216,7.687-8.249,11.549-12.178,1.179-1.2,2.365-2.34,3.544-3.514,2.744-2.725,5.493-5.4,8.249-7.98q1.952-1.833,3.9-3.611,4.216-3.85,8.432-7.479c1.112-.959,2.224-1.943,3.343-2.884,3.886-3.275,7.773-6.453,11.665-9.477,92.422-71.8,184.782-73.87,223.718-73.87C1136.335,232.885,1072.162,189.634,998.365,152.678Z" transform="translate(-35.121 -53.712)"/></svg>